# xmcd
#
# Track frame offsets: 
#        182
#        15692
#        30345
#        51745
#        70697
#        82015
#        102765
#        120777
#        140712
#        160110
#        182655
#        201147
#
# Disc length: 2859 seconds
#
# Revision: 3
# Processed by: cddbd v1.5.2PL0 Copyright (c) Steve Scherf et al.
# Submitted via: ExactAudioCopy v0.95a4
#
DISCID=9a0b290c
DTITLE=Rita Chiarelli - Road Rockets
DYEAR=1993
DGENRE=Blues
TTITLE0=Love Overload
TTITLE1=Punish Me
TTITLE2=Serves You Right
TTITLE3=This Is My Life
TTITLE4=Highway 61 (Back Porch Version)
TTITLE5=Highway 61 Revisited
TTITLE6=I'm Confessin'
TTITLE7=Love U 2 Much
TTITLE8=Strange Behavior
TTITLE9=Slow Dance
TTITLE10=Have You Seen My Shoes
TTITLE11=Tryin' To Get To You
EXTD=Year: 1993\n\n\n\n\n\n                                           
EXTD=          www.ritachiarelli.com
EXTT0=
EXTT1=
EXTT2=
EXTT3=
EXTT4=
EXTT5=
EXTT6=
EXTT7=
EXTT8=
EXTT9=
EXTT10=
EXTT11=
PLAYORDER=
